<svg width="161" height="96" viewBox="0 0 161 96" fill="none" xmlns="http://www.w3.org/2000/svg">
<path d="M90 72L108 90" stroke="#90A4AE" stroke-width="5" stroke-linecap="round"/>
<path d="M87.0503 78.9497C89.7839 81.6834 94.2161 81.6834 96.9497 78.9497C99.6834 76.2161 99.6834 71.7839 96.9497 69.0503L87.0503 78.9497ZM85.0503 76.9497L87.0503 78.9497L96.9497 69.0503L94.9497 67.0503L85.0503 76.9497Z" fill="#FFCC80"/>
<circle cx="74" cy="55" r="22.5" fill="#E3F2FD" stroke="#90A4AE" stroke-width="5"/>
<path d="M69 59C69 59 69.5 56 74 56C78.5 56 79 59 79 59" stroke="#607D8B" stroke-width="2" stroke-linecap="round"/>
<ellipse cx="60.5" cy="57" rx="4.5" ry="3" fill="#FFCDD2"/>
<path d="M66 52C66 52 65.75 54 63.5 54C61.25 54 61 52 61 52" stroke="#607D8B" stroke-width="2" stroke-linecap="round"/>
<ellipse cx="87.5" cy="57" rx="4.5" ry="3" fill="#FFCDD2"/>
<path d="M87 52C87 52 86.75 54 84.5 54C82.25 54 82 52 82 52" stroke="#607D8B" stroke-width="2" stroke-linecap="round"/>
<ellipse cx="125" cy="18.355" rx="27.0545" ry="16.1302" fill="#263238"/>
<path d="M100.764 42.8284C107.403 37.9935 108.044 31.1728 107.534 28.3669L118.236 32.4679C112.645 39.3749 104.258 42.2528 100.764 42.8284Z" fill="#263238"/>
<path d="M139.513 13.0457L139.409 18.8093H138.3L138.196 13.0457H139.513ZM138.857 21.2111C138.635 21.2111 138.446 21.1348 138.288 20.982C138.131 20.8266 138.054 20.6397 138.056 20.4211C138.054 20.2051 138.131 20.0208 138.288 19.868C138.446 19.7126 138.635 19.6349 138.857 19.6349C139.073 19.6349 139.26 19.7126 139.417 19.868C139.575 20.0208 139.655 20.2051 139.658 20.4211C139.655 20.5659 139.616 20.6989 139.541 20.8201C139.469 20.9386 139.373 21.0334 139.253 21.1045C139.133 21.1756 139.001 21.2111 138.857 21.2111Z" fill="white"/>
<path d="M136.568 16.5497L135.483 16.7393C135.438 16.6024 135.366 16.472 135.267 16.3482C135.171 16.2245 135.04 16.1231 134.875 16.0441C134.709 15.965 134.503 15.9255 134.254 15.9255C133.915 15.9255 133.633 16.0006 133.406 16.1507C133.179 16.2982 133.065 16.4891 133.065 16.7235C133.065 16.9263 133.141 17.0896 133.294 17.2134C133.446 17.3371 133.691 17.4385 134.03 17.5175L135.007 17.7388C135.573 17.8678 135.994 18.0666 136.272 18.3353C136.549 18.6039 136.688 18.9528 136.688 19.3821C136.688 19.7456 136.581 20.0695 136.368 20.3539C136.157 20.6357 135.862 20.8569 135.483 21.0176C135.107 21.1782 134.671 21.2586 134.174 21.2586C133.486 21.2586 132.924 21.1137 132.489 20.824C132.054 20.5317 131.787 20.1169 131.688 19.5796L132.845 19.4058C132.917 19.7034 133.065 19.9286 133.29 20.0813C133.514 20.2315 133.806 20.3065 134.166 20.3065C134.559 20.3065 134.872 20.2262 135.107 20.0655C135.342 19.9023 135.459 19.7034 135.459 19.469C135.459 19.2794 135.387 19.1201 135.243 18.991C135.102 18.862 134.884 18.7645 134.591 18.6987L133.55 18.4735C132.976 18.3445 132.552 18.1391 132.277 17.8573C132.005 17.5755 131.868 17.2186 131.868 16.7867C131.868 16.4286 131.97 16.1152 132.173 15.8465C132.376 15.5779 132.656 15.3685 133.013 15.2184C133.371 15.0657 133.781 14.9893 134.242 14.9893C134.907 14.9893 135.43 15.1315 135.812 15.4159C136.193 15.6977 136.445 16.0757 136.568 16.5497Z" fill="white"/>
<path d="M125.003 23.4115V15.0683H126.172V16.052H126.272C126.342 15.9255 126.442 15.7794 126.572 15.6135C126.703 15.4475 126.885 15.3027 127.117 15.1789C127.349 15.0525 127.656 14.9893 128.038 14.9893C128.534 14.9893 128.977 15.1131 129.367 15.3606C129.756 15.6082 130.062 15.965 130.283 16.4312C130.507 16.8973 130.62 17.4583 130.62 18.1141C130.62 18.7698 130.509 19.3321 130.287 19.8009C130.066 20.267 129.762 20.6265 129.375 20.8793C128.988 21.1295 128.546 21.2546 128.05 21.2546C127.676 21.2546 127.37 21.1927 127.133 21.0689C126.898 20.9452 126.714 20.8003 126.58 20.6344C126.447 20.4685 126.344 20.321 126.272 20.1919H126.2V23.4115H125.003ZM126.176 18.1022C126.176 18.5288 126.239 18.9028 126.364 19.2241C126.49 19.5454 126.671 19.7969 126.909 19.9786C127.146 20.1577 127.437 20.2473 127.781 20.2473C128.139 20.2473 128.438 20.1538 128.678 19.9668C128.918 19.7772 129.1 19.5204 129.222 19.1965C129.348 18.8725 129.411 18.5078 129.411 18.1022C129.411 17.7019 129.349 17.3424 129.226 17.0237C129.106 16.7051 128.925 16.4536 128.682 16.2692C128.442 16.0849 128.142 15.9927 127.781 15.9927C127.434 15.9927 127.141 16.0809 126.901 16.2574C126.663 16.4338 126.483 16.6801 126.36 16.9961C126.237 17.3121 126.176 17.6808 126.176 18.1022Z" fill="white"/>
<path d="M120.801 21.2586C120.224 21.2586 119.721 21.1282 119.292 20.8675C118.862 20.6067 118.529 20.242 118.291 19.7732C118.053 19.3044 117.935 18.7566 117.935 18.1299C117.935 17.5004 118.053 16.95 118.291 16.4786C118.529 16.0072 118.862 15.6411 119.292 15.3804C119.721 15.1197 120.224 14.9893 120.801 14.9893C121.377 14.9893 121.88 15.1197 122.31 15.3804C122.74 15.6411 123.073 16.0072 123.311 16.4786C123.548 16.95 123.667 17.5004 123.667 18.1299C123.667 18.7566 123.548 19.3044 123.311 19.7732C123.073 20.242 122.74 20.6067 122.31 20.8675C121.88 21.1282 121.377 21.2586 120.801 21.2586ZM120.805 20.267C121.179 20.267 121.488 20.1696 121.734 19.9747C121.979 19.7798 122.161 19.5204 122.278 19.1965C122.398 18.8725 122.458 18.5157 122.458 18.1259C122.458 17.7388 122.398 17.3832 122.278 17.0593C122.161 16.7327 121.979 16.4707 121.734 16.2732C121.488 16.0757 121.179 15.9769 120.805 15.9769C120.429 15.9769 120.116 16.0757 119.868 16.2732C119.623 16.4707 119.44 16.7327 119.32 17.0593C119.202 17.3832 119.144 17.7388 119.144 18.1259C119.144 18.5157 119.202 18.8725 119.32 19.1965C119.44 19.5204 119.623 19.7798 119.868 19.9747C120.116 20.1696 120.429 20.267 120.805 20.267Z" fill="white"/>
<path d="M114.009 21.2586C113.432 21.2586 112.929 21.1282 112.5 20.8675C112.07 20.6067 111.736 20.242 111.499 19.7732C111.261 19.3044 111.142 18.7566 111.142 18.1299C111.142 17.5004 111.261 16.95 111.499 16.4786C111.736 16.0072 112.07 15.6411 112.5 15.3804C112.929 15.1197 113.432 14.9893 114.009 14.9893C114.585 14.9893 115.088 15.1197 115.518 15.3804C115.948 15.6411 116.281 16.0072 116.519 16.4786C116.756 16.95 116.875 17.5004 116.875 18.1299C116.875 18.7566 116.756 19.3044 116.519 19.7732C116.281 20.242 115.948 20.6067 115.518 20.8675C115.088 21.1282 114.585 21.2586 114.009 21.2586ZM114.013 20.267C114.386 20.267 114.696 20.1696 114.941 19.9747C115.187 19.7798 115.368 19.5204 115.486 19.1965C115.606 18.8725 115.666 18.5157 115.666 18.1259C115.666 17.7388 115.606 17.3832 115.486 17.0593C115.368 16.7327 115.187 16.4707 114.941 16.2732C114.696 16.0757 114.386 15.9769 114.013 15.9769C113.636 15.9769 113.324 16.0757 113.076 16.2732C112.83 16.4707 112.648 16.7327 112.528 17.0593C112.41 17.3832 112.351 17.7388 112.351 18.1259C112.351 18.5157 112.41 18.8725 112.528 19.1965C112.648 19.5204 112.83 19.7798 113.076 19.9747C113.324 20.1696 113.636 20.267 114.013 20.267Z" fill="white"/>
</svg>
